<svg width="276" height="276" viewBox="0 0 276 276" fill="none" xmlns="http://www.w3.org/2000/svg">
<rect width="276" height="276" fill="#1E1E1E"/>
<g clip-path="url(#clip0_0_1)">
<rect width="276" height="276" fill="white"/>
<path d="M0 0H276V138C276 214.215 214.215 276 138 276C61.7847 276 0 214.215 0 138V0Z" fill="#FFD33F"/>
<path d="M42.267 186C42.2443 185.716 42.1378 185.494 41.9474 185.335C41.7599 185.176 41.4744 185.097 41.0909 185.097C40.8466 185.097 40.6463 185.126 40.4901 185.186C40.3366 185.243 40.223 185.321 40.1491 185.42C40.0753 185.52 40.0369 185.634 40.0341 185.761C40.0284 185.866 40.0469 185.962 40.0895 186.047C40.1349 186.129 40.206 186.205 40.3026 186.273C40.3991 186.338 40.5227 186.398 40.6733 186.452C40.8239 186.506 41.0028 186.554 41.2102 186.597L41.9261 186.75C42.4091 186.852 42.8224 186.987 43.1662 187.155C43.5099 187.322 43.7912 187.52 44.0099 187.747C44.2287 187.972 44.3892 188.224 44.4915 188.506C44.5966 188.787 44.6506 189.094 44.6534 189.426C44.6506 190 44.5071 190.486 44.223 190.884C43.9389 191.281 43.5327 191.584 43.0043 191.791C42.4787 191.999 41.8466 192.102 41.108 192.102C40.3494 192.102 39.6875 191.99 39.1222 191.766C38.5597 191.541 38.1222 191.196 37.8097 190.73C37.5 190.261 37.3438 189.662 37.3409 188.932H39.5909C39.6051 189.199 39.6719 189.423 39.7912 189.605C39.9105 189.787 40.0781 189.925 40.294 190.018C40.5128 190.112 40.7727 190.159 41.0739 190.159C41.3267 190.159 41.5384 190.128 41.7088 190.065C41.8793 190.003 42.0085 189.916 42.0966 189.805C42.1847 189.695 42.2301 189.568 42.233 189.426C42.2301 189.293 42.1861 189.176 42.1009 189.077C42.0185 188.974 41.8821 188.884 41.6918 188.804C41.5014 188.722 41.2443 188.645 40.9205 188.574L40.0511 188.386C39.2784 188.219 38.669 187.939 38.223 187.547C37.7798 187.152 37.5597 186.614 37.5625 185.932C37.5597 185.378 37.7074 184.893 38.0057 184.479C38.3068 184.061 38.723 183.736 39.2543 183.503C39.7884 183.27 40.4006 183.153 41.0909 183.153C41.7955 183.153 42.4048 183.271 42.919 183.507C43.4332 183.743 43.8295 184.075 44.108 184.504C44.3892 184.93 44.5313 185.429 44.5341 186H42.267ZM47.2347 192V183.273H53.5245V185.182H49.604V186.682H53.2006V188.591H49.604V190.091H53.5074V192H47.2347ZM56.3795 192V183.273H58.7489V190.091H62.2773V192H56.3795ZM64.915 192V183.273H71.0514V185.182H67.2843V186.682H70.6764V188.591H67.2843V192H64.915ZM73.6028 192V183.273H75.9721V190.091H79.5005V192H73.6028ZM82.1383 192V183.273H88.4281V185.182H84.5076V186.682H88.1042V188.591H84.5076V190.091H88.411V192H82.1383ZM95.9877 186C95.9649 185.716 95.8584 185.494 95.6681 185.335C95.4806 185.176 95.1951 185.097 94.8115 185.097C94.5672 185.097 94.3669 185.126 94.2107 185.186C94.0573 185.243 93.9436 185.321 93.8698 185.42C93.7959 185.52 93.7576 185.634 93.7547 185.761C93.749 185.866 93.7675 185.962 93.8101 186.047C93.8556 186.129 93.9266 186.205 94.0232 186.273C94.1198 186.338 94.2434 186.398 94.3939 186.452C94.5445 186.506 94.7235 186.554 94.9309 186.597L95.6468 186.75C96.1297 186.852 96.5431 186.987 96.8868 187.155C97.2306 187.322 97.5118 187.52 97.7306 187.747C97.9493 187.972 98.1098 188.224 98.2121 188.506C98.3172 188.787 98.3712 189.094 98.374 189.426C98.3712 190 98.2277 190.486 97.9436 190.884C97.6595 191.281 97.2533 191.584 96.7249 191.791C96.1993 191.999 95.5672 192.102 94.8286 192.102C94.0701 192.102 93.4081 191.99 92.8428 191.766C92.2803 191.541 91.8428 191.196 91.5303 190.73C91.2206 190.261 91.0644 189.662 91.0615 188.932H93.3115C93.3257 189.199 93.3925 189.423 93.5118 189.605C93.6311 189.787 93.7987 189.925 94.0147 190.018C94.2334 190.112 94.4934 190.159 94.7945 190.159C95.0473 190.159 95.259 190.128 95.4294 190.065C95.5999 190.003 95.7291 189.916 95.8172 189.805C95.9053 189.695 95.9507 189.568 95.9536 189.426C95.9507 189.293 95.9067 189.176 95.8215 189.077C95.7391 188.974 95.6027 188.884 95.4124 188.804C95.222 188.722 94.9649 188.645 94.6411 188.574L93.7718 188.386C92.999 188.219 92.3897 187.939 91.9436 187.547C91.5005 187.152 91.2803 186.614 91.2831 185.932C91.2803 185.378 91.428 184.893 91.7263 184.479C92.0274 184.061 92.4436 183.736 92.9749 183.503C93.509 183.27 94.1212 183.153 94.8115 183.153C95.5161 183.153 96.1255 183.271 96.6397 183.507C97.1539 183.743 97.5502 184.075 97.8286 184.504C98.1098 184.93 98.2519 185.429 98.2547 186H95.9877ZM105.66 186C105.637 185.716 105.531 185.494 105.34 185.335C105.153 185.176 104.867 185.097 104.484 185.097C104.239 185.097 104.039 185.126 103.883 185.186C103.729 185.243 103.616 185.321 103.542 185.42C103.468 185.52 103.43 185.634 103.427 185.761C103.421 185.866 103.44 185.962 103.482 186.047C103.528 186.129 103.599 186.205 103.695 186.273C103.792 186.338 103.916 186.398 104.066 186.452C104.217 186.506 104.396 186.554 104.603 186.597L105.319 186.75C105.802 186.852 106.215 186.987 106.559 187.155C106.903 187.322 107.184 187.52 107.403 187.747C107.622 187.972 107.782 188.224 107.884 188.506C107.989 188.787 108.043 189.094 108.046 189.426C108.043 190 107.9 190.486 107.616 190.884C107.332 191.281 106.925 191.584 106.397 191.791C105.872 191.999 105.239 192.102 104.501 192.102C103.742 192.102 103.08 191.99 102.515 191.766C101.952 191.541 101.515 191.196 101.202 190.73C100.893 190.261 100.737 189.662 100.734 188.932H102.984C102.998 189.199 103.065 189.423 103.184 189.605C103.303 189.787 103.471 189.925 103.687 190.018C103.906 190.112 104.166 190.159 104.467 190.159C104.72 190.159 104.931 190.128 105.102 190.065C105.272 190.003 105.401 189.916 105.489 189.805C105.577 189.695 105.623 189.568 105.626 189.426C105.623 189.293 105.579 189.176 105.494 189.077C105.411 188.974 105.275 188.884 105.085 188.804C104.894 188.722 104.637 188.645 104.313 188.574L103.444 188.386C102.671 188.219 102.062 187.939 101.616 187.547C101.173 187.152 100.952 186.614 100.955 185.932C100.952 185.378 101.1 184.893 101.398 184.479C101.7 184.061 102.116 183.736 102.647 183.503C103.181 183.27 103.793 183.153 104.484 183.153C105.188 183.153 105.798 183.271 106.312 183.507C106.826 183.743 107.222 184.075 107.501 184.504C107.782 184.93 107.924 185.429 107.927 186H105.66ZM119.403 186C119.38 185.716 119.273 185.494 119.083 185.335C118.896 185.176 118.61 185.097 118.227 185.097C117.982 185.097 117.782 185.126 117.626 185.186C117.472 185.243 117.359 185.321 117.285 185.42C117.211 185.52 117.173 185.634 117.17 185.761C117.164 185.866 117.183 185.962 117.225 186.047C117.271 186.129 117.342 186.205 117.438 186.273C117.535 186.338 117.658 186.398 117.809 186.452C117.959 186.506 118.138 186.554 118.346 186.597L119.062 186.75C119.545 186.852 119.958 186.987 120.302 187.155C120.646 187.322 120.927 187.52 121.146 187.747C121.364 187.972 121.525 188.224 121.627 188.506C121.732 188.787 121.786 189.094 121.789 189.426C121.786 190 121.643 190.486 121.359 190.884C121.075 191.281 120.668 191.584 120.14 191.791C119.614 191.999 118.982 192.102 118.244 192.102C117.485 192.102 116.823 191.99 116.258 191.766C115.695 191.541 115.258 191.196 114.945 190.73C114.636 190.261 114.479 189.662 114.477 188.932H116.727C116.741 189.199 116.808 189.423 116.927 189.605C117.046 189.787 117.214 189.925 117.43 190.018C117.648 190.112 117.908 190.159 118.209 190.159C118.462 190.159 118.674 190.128 118.844 190.065C119.015 190.003 119.144 189.916 119.232 189.805C119.32 189.695 119.366 189.568 119.369 189.426C119.366 189.293 119.322 189.176 119.236 189.077C119.154 188.974 119.018 188.884 118.827 188.804C118.637 188.722 118.38 188.645 118.056 188.574L117.187 188.386C116.414 188.219 115.805 187.939 115.359 187.547C114.915 187.152 114.695 186.614 114.698 185.932C114.695 185.378 114.843 184.893 115.141 184.479C115.442 184.061 115.859 183.736 116.39 183.503C116.924 183.27 117.536 183.153 118.227 183.153C118.931 183.153 119.54 183.271 120.055 183.507C120.569 183.743 120.965 184.075 121.244 184.504C121.525 184.93 121.667 185.429 121.67 186H119.403ZM124.37 192V183.273H130.66V185.182H126.74V186.682H130.336V188.591H126.74V190.091H130.643V192H124.37ZM133.515 192V183.273H137.282C137.93 183.273 138.497 183.391 138.982 183.626C139.468 183.862 139.846 184.202 140.116 184.645C140.386 185.088 140.521 185.619 140.521 186.239C140.521 186.864 140.382 187.391 140.103 187.82C139.828 188.249 139.44 188.572 138.94 188.791C138.443 189.01 137.862 189.119 137.197 189.119H134.947V187.278H136.72C136.998 187.278 137.235 187.244 137.431 187.176C137.63 187.105 137.782 186.993 137.887 186.839C137.995 186.686 138.049 186.486 138.049 186.239C138.049 185.989 137.995 185.786 137.887 185.629C137.782 185.47 137.63 185.354 137.431 185.28C137.235 185.203 136.998 185.165 136.72 185.165H135.884V192H133.515ZM138.629 187.994L140.811 192H138.237L136.106 187.994H138.629ZM145.328 183.273L147.117 189.426H147.186L148.975 183.273H151.651L148.771 192H145.532L142.651 183.273H145.328ZM156.541 183.273V192H154.172V183.273H156.541ZM166.895 183.273V192H164.918L161.765 187.415H161.714V192H159.344V183.273H161.356L164.458 187.841H164.526V183.273H166.895ZM175.364 186.153C175.327 186.003 175.269 185.871 175.189 185.757C175.109 185.641 175.01 185.543 174.891 185.463C174.774 185.381 174.638 185.32 174.482 185.28C174.328 185.237 174.159 185.216 173.974 185.216C173.577 185.216 173.237 185.311 172.956 185.501C172.678 185.692 172.465 185.966 172.317 186.324C172.172 186.682 172.099 187.114 172.099 187.619C172.099 188.131 172.169 188.568 172.308 188.932C172.448 189.295 172.655 189.574 172.93 189.767C173.206 189.96 173.548 190.057 173.957 190.057C174.318 190.057 174.618 190.004 174.857 189.899C175.098 189.794 175.278 189.645 175.398 189.452C175.517 189.259 175.577 189.031 175.577 188.77L175.986 188.812H173.992V187.125H177.861V188.335C177.861 189.131 177.692 189.811 177.354 190.376C177.019 190.939 176.555 191.371 175.965 191.672C175.376 191.97 174.702 192.119 173.94 192.119C173.091 192.119 172.345 191.939 171.703 191.578C171.061 191.217 170.56 190.703 170.199 190.036C169.841 189.368 169.662 188.574 169.662 187.653C169.662 186.932 169.771 186.293 169.99 185.736C170.212 185.179 170.519 184.709 170.911 184.325C171.303 183.939 171.756 183.648 172.27 183.452C172.784 183.253 173.335 183.153 173.923 183.153C174.44 183.153 174.921 183.227 175.364 183.375C175.81 183.52 176.203 183.727 176.544 183.997C176.888 184.264 177.165 184.581 177.375 184.947C177.585 185.314 177.713 185.716 177.759 186.153H175.364ZM189.421 186C189.398 185.716 189.292 185.494 189.101 185.335C188.914 185.176 188.628 185.097 188.245 185.097C188 185.097 187.8 185.126 187.644 185.186C187.49 185.243 187.377 185.321 187.303 185.42C187.229 185.52 187.191 185.634 187.188 185.761C187.182 185.866 187.201 185.962 187.243 186.047C187.289 186.129 187.36 186.205 187.456 186.273C187.553 186.338 187.676 186.398 187.827 186.452C187.978 186.506 188.157 186.554 188.364 186.597L189.08 186.75C189.563 186.852 189.976 186.987 190.32 187.155C190.664 187.322 190.945 187.52 191.164 187.747C191.382 187.972 191.543 188.224 191.645 188.506C191.75 188.787 191.804 189.094 191.807 189.426C191.804 190 191.661 190.486 191.377 190.884C191.093 191.281 190.686 191.584 190.158 191.791C189.632 191.999 189 192.102 188.262 192.102C187.503 192.102 186.841 191.99 186.276 191.766C185.713 191.541 185.276 191.196 184.963 190.73C184.654 190.261 184.497 189.662 184.495 188.932H186.745C186.759 189.199 186.826 189.423 186.945 189.605C187.064 189.787 187.232 189.925 187.448 190.018C187.667 190.112 187.926 190.159 188.228 190.159C188.48 190.159 188.692 190.128 188.863 190.065C189.033 190.003 189.162 189.916 189.25 189.805C189.338 189.695 189.384 189.568 189.387 189.426C189.384 189.293 189.34 189.176 189.255 189.077C189.172 188.974 189.036 188.884 188.846 188.804C188.655 188.722 188.398 188.645 188.074 188.574L187.205 188.386C186.432 188.219 185.823 187.939 185.377 187.547C184.934 187.152 184.713 186.614 184.716 185.932C184.713 185.378 184.861 184.893 185.159 184.479C185.461 184.061 185.877 183.736 186.408 183.503C186.942 183.27 187.554 183.153 188.245 183.153C188.949 183.153 189.559 183.271 190.073 183.507C190.587 183.743 190.983 184.075 191.262 184.504C191.543 184.93 191.685 185.429 191.688 186H189.421ZM202.843 187.636C202.843 188.608 202.654 189.428 202.276 190.095C201.898 190.76 201.388 191.264 200.746 191.608C200.104 191.949 199.388 192.119 198.599 192.119C197.803 192.119 197.084 191.947 196.442 191.604C195.803 191.257 195.295 190.751 194.917 190.087C194.542 189.419 194.354 188.602 194.354 187.636C194.354 186.665 194.542 185.847 194.917 185.182C195.295 184.514 195.803 184.01 196.442 183.669C197.084 183.325 197.803 183.153 198.599 183.153C199.388 183.153 200.104 183.325 200.746 183.669C201.388 184.01 201.898 184.514 202.276 185.182C202.654 185.847 202.843 186.665 202.843 187.636ZM200.405 187.636C200.405 187.114 200.336 186.673 200.197 186.315C200.06 185.955 199.857 185.682 199.587 185.497C199.32 185.31 198.991 185.216 198.599 185.216C198.207 185.216 197.876 185.31 197.606 185.497C197.339 185.682 197.136 185.955 196.996 186.315C196.86 186.673 196.792 187.114 196.792 187.636C196.792 188.159 196.86 188.601 196.996 188.962C197.136 189.32 197.339 189.592 197.606 189.78C197.876 189.964 198.207 190.057 198.599 190.057C198.991 190.057 199.32 189.964 199.587 189.78C199.857 189.592 200.06 189.32 200.197 188.962C200.336 188.601 200.405 188.159 200.405 187.636ZM213.767 186.545H211.364C211.346 186.347 211.301 186.166 211.227 186.004C211.156 185.842 211.057 185.703 210.929 185.587C210.804 185.467 210.652 185.376 210.473 185.314C210.294 185.249 210.091 185.216 209.864 185.216C209.466 185.216 209.129 185.312 208.854 185.506C208.581 185.699 208.373 185.976 208.231 186.337C208.092 186.697 208.023 187.131 208.023 187.636C208.023 188.17 208.094 188.618 208.236 188.979C208.381 189.337 208.589 189.607 208.862 189.788C209.135 189.967 209.463 190.057 209.846 190.057C210.065 190.057 210.261 190.03 210.435 189.976C210.608 189.919 210.758 189.838 210.886 189.733C211.014 189.628 211.118 189.501 211.197 189.354C211.28 189.203 211.335 189.034 211.364 188.847L213.767 188.864C213.739 189.233 213.635 189.609 213.456 189.993C213.277 190.374 213.023 190.726 212.693 191.05C212.366 191.371 211.962 191.629 211.479 191.825C210.996 192.021 210.435 192.119 209.795 192.119C208.994 192.119 208.275 191.947 207.639 191.604C207.006 191.26 206.504 190.754 206.135 190.087C205.768 189.419 205.585 188.602 205.585 187.636C205.585 186.665 205.773 185.847 206.148 185.182C206.523 184.514 207.028 184.01 207.665 183.669C208.301 183.325 209.011 183.153 209.795 183.153C210.346 183.153 210.854 183.229 211.317 183.379C211.78 183.53 212.186 183.75 212.535 184.04C212.885 184.327 213.166 184.68 213.379 185.101C213.592 185.521 213.721 186.003 213.767 186.545ZM218.891 183.273V192H216.522V183.273H218.891ZM221.694 192V183.273H227.984V185.182H224.063V186.682H227.66V188.591H224.063V190.091H227.967V192H221.694ZM230.6 185.182V183.273H238.185V185.182H235.56V192H233.225V185.182H230.6ZM240.399 183.273H243.041L244.746 186.818H244.814L246.519 183.273H249.161L245.956 189.256V192H243.604V189.256L240.399 183.273Z" fill="black"/>
<path d="M55.9588 204V195.273H57.2756V199.065H61.6264V195.273H62.9474V204H61.6264V200.195H57.2756V204H55.9588ZM67.5838 204.132C66.9389 204.132 66.3835 203.994 65.9176 203.719C65.4545 203.44 65.0966 203.05 64.8438 202.547C64.5938 202.041 64.4688 201.449 64.4688 200.77C64.4688 200.099 64.5938 199.509 64.8438 198.997C65.0966 198.486 65.4489 198.087 65.9006 197.8C66.3551 197.513 66.8864 197.369 67.4943 197.369C67.8636 197.369 68.2216 197.43 68.5682 197.553C68.9148 197.675 69.2259 197.866 69.5014 198.128C69.777 198.389 69.9943 198.729 70.1534 199.146C70.3125 199.561 70.392 200.065 70.392 200.659V201.111H65.1889V200.156H69.1435C69.1435 199.821 69.0753 199.524 68.9389 199.266C68.8026 199.004 68.6108 198.798 68.3636 198.648C68.1193 198.497 67.8324 198.422 67.5028 198.422C67.1449 198.422 66.8324 198.51 66.5653 198.686C66.3011 198.859 66.0966 199.087 65.9517 199.368C65.8097 199.646 65.7386 199.949 65.7386 200.276V201.021C65.7386 201.459 65.8153 201.831 65.9688 202.138C66.125 202.445 66.3423 202.679 66.6207 202.841C66.8991 203 67.2244 203.08 67.5966 203.08C67.8381 203.08 68.0582 203.045 68.2571 202.977C68.456 202.906 68.6278 202.801 68.7727 202.662C68.9176 202.523 69.0284 202.351 69.1051 202.146L70.3111 202.364C70.2145 202.719 70.0412 203.03 69.7912 203.297C69.544 203.561 69.233 203.767 68.858 203.915C68.4858 204.06 68.0611 204.132 67.5838 204.132ZM73.0799 195.273V204H71.8058V195.273H73.0799ZM74.794 206.455V197.455H76.0384V198.516H76.1449C76.2188 198.379 76.3253 198.222 76.4645 198.043C76.6037 197.864 76.7969 197.707 77.044 197.574C77.2912 197.438 77.6179 197.369 78.0241 197.369C78.5526 197.369 79.0241 197.503 79.4389 197.77C79.8537 198.037 80.179 198.422 80.4148 198.925C80.6534 199.428 80.7727 200.033 80.7727 200.74C80.7727 201.447 80.6548 202.054 80.419 202.56C80.1832 203.062 79.8594 203.45 79.4474 203.723C79.0355 203.993 78.5653 204.128 78.0369 204.128C77.6392 204.128 77.3139 204.061 77.0611 203.928C76.8111 203.794 76.6151 203.638 76.473 203.459C76.331 203.28 76.2216 203.121 76.1449 202.982H76.0682V206.455H74.794ZM76.0426 200.727C76.0426 201.187 76.1094 201.591 76.2429 201.938C76.3764 202.284 76.5696 202.555 76.8224 202.751C77.0753 202.945 77.3849 203.041 77.7514 203.041C78.1321 203.041 78.4503 202.94 78.706 202.739C78.9616 202.534 79.1548 202.257 79.2855 201.908C79.419 201.558 79.4858 201.165 79.4858 200.727C79.4858 200.295 79.4205 199.908 79.2898 199.564C79.1619 199.22 78.9688 198.949 78.7102 198.75C78.4545 198.551 78.1349 198.452 77.7514 198.452C77.3821 198.452 77.0696 198.547 76.8139 198.737C76.5611 198.928 76.3693 199.193 76.2386 199.534C76.108 199.875 76.0426 200.273 76.0426 200.727ZM82.2003 204V197.455H83.4744V204H82.2003ZM82.8438 196.445C82.6222 196.445 82.4318 196.371 82.2727 196.223C82.1165 196.072 82.0384 195.893 82.0384 195.686C82.0384 195.476 82.1165 195.297 82.2727 195.149C82.4318 194.999 82.6222 194.923 82.8438 194.923C83.0653 194.923 83.2543 194.999 83.4105 195.149C83.5696 195.297 83.6491 195.476 83.6491 195.686C83.6491 195.893 83.5696 196.072 83.4105 196.223C83.2543 196.371 83.0653 196.445 82.8438 196.445ZM86.4627 200.114V204H85.1886V197.455H86.4116V198.52H86.4925C86.6431 198.173 86.8789 197.895 87.1999 197.685C87.5238 197.474 87.9315 197.369 88.4229 197.369C88.869 197.369 89.2596 197.463 89.5948 197.651C89.93 197.835 90.19 198.111 90.3746 198.477C90.5593 198.844 90.6516 199.297 90.6516 199.837V204H89.3775V199.99C89.3775 199.516 89.2539 199.145 89.0067 198.878C88.7596 198.608 88.4201 198.473 87.9883 198.473C87.6928 198.473 87.43 198.537 87.1999 198.665C86.9727 198.793 86.7923 198.98 86.6587 199.227C86.5281 199.472 86.4627 199.767 86.4627 200.114ZM95.1048 206.591C94.5849 206.591 94.1374 206.523 93.7624 206.386C93.3903 206.25 93.0863 206.07 92.8505 205.845C92.6147 205.621 92.4386 205.375 92.3221 205.108L93.4173 204.656C93.494 204.781 93.5962 204.913 93.7241 205.053C93.8548 205.195 94.0309 205.315 94.2525 205.415C94.4769 205.514 94.7653 205.564 95.1175 205.564C95.6005 205.564 95.9996 205.446 96.315 205.21C96.6303 204.977 96.788 204.605 96.788 204.094V202.807H96.707C96.6303 202.946 96.5195 203.101 96.3746 203.271C96.2326 203.442 96.0366 203.589 95.7866 203.714C95.5366 203.839 95.2113 203.902 94.8107 203.902C94.2937 203.902 93.8278 203.781 93.413 203.54C93.0011 203.295 92.6744 202.936 92.4329 202.462C92.1942 201.984 92.0749 201.398 92.0749 200.702C92.0749 200.006 92.1928 199.409 92.4286 198.912C92.6673 198.415 92.994 198.034 93.4087 197.77C93.8235 197.503 94.2937 197.369 94.8192 197.369C95.2255 197.369 95.5536 197.438 95.8036 197.574C96.0536 197.707 96.2482 197.864 96.3874 198.043C96.5295 198.222 96.6388 198.379 96.7156 198.516H96.8093V197.455H98.0579V204.145C98.0579 204.707 97.9272 205.169 97.6658 205.53C97.4045 205.891 97.0508 206.158 96.6048 206.331C96.1616 206.504 95.6616 206.591 95.1048 206.591ZM95.092 202.845C95.4585 202.845 95.7681 202.76 96.021 202.589C96.2766 202.416 96.4698 202.169 96.6005 201.848C96.734 201.524 96.8008 201.136 96.8008 200.685C96.8008 200.244 96.7354 199.857 96.6048 199.521C96.4741 199.186 96.2823 198.925 96.0295 198.737C95.7766 198.547 95.4641 198.452 95.092 198.452C94.7085 198.452 94.3888 198.551 94.1332 198.75C93.8775 198.946 93.6843 199.213 93.5536 199.551C93.4258 199.889 93.3619 200.267 93.3619 200.685C93.3619 201.114 93.4272 201.49 93.5579 201.814C93.6886 202.138 93.8817 202.391 94.1374 202.572C94.396 202.754 94.7141 202.845 95.092 202.845ZM103.045 204V195.273H106.156C106.835 195.273 107.397 195.396 107.843 195.643C108.289 195.891 108.623 196.229 108.844 196.658C109.066 197.084 109.177 197.564 109.177 198.098C109.177 198.635 109.065 199.118 108.84 199.547C108.619 199.973 108.283 200.311 107.835 200.561C107.388 200.808 106.827 200.932 106.151 200.932H104.012V199.815H106.032C106.461 199.815 106.809 199.741 107.076 199.594C107.343 199.443 107.539 199.239 107.664 198.98C107.789 198.722 107.852 198.428 107.852 198.098C107.852 197.768 107.789 197.476 107.664 197.22C107.539 196.964 107.342 196.764 107.072 196.619C106.805 196.474 106.452 196.402 106.015 196.402H104.362V204H103.045ZM113.357 204.132C112.712 204.132 112.157 203.994 111.691 203.719C111.228 203.44 110.87 203.05 110.617 202.547C110.367 202.041 110.242 201.449 110.242 200.77C110.242 200.099 110.367 199.509 110.617 198.997C110.87 198.486 111.222 198.087 111.674 197.8C112.129 197.513 112.66 197.369 113.268 197.369C113.637 197.369 113.995 197.43 114.342 197.553C114.688 197.675 114.999 197.866 115.275 198.128C115.55 198.389 115.768 198.729 115.927 199.146C116.086 199.561 116.165 200.065 116.165 200.659V201.111H110.962V200.156H114.917C114.917 199.821 114.849 199.524 114.712 199.266C114.576 199.004 114.384 198.798 114.137 198.648C113.893 198.497 113.606 198.422 113.276 198.422C112.918 198.422 112.606 198.51 112.339 198.686C112.075 198.859 111.87 199.087 111.725 199.368C111.583 199.646 111.512 199.949 111.512 200.276V201.021C111.512 201.459 111.589 201.831 111.742 202.138C111.898 202.445 112.116 202.679 112.394 202.841C112.673 203 112.998 203.08 113.37 203.08C113.612 203.08 113.832 203.045 114.031 202.977C114.229 202.906 114.401 202.801 114.546 202.662C114.691 202.523 114.802 202.351 114.879 202.146L116.085 202.364C115.988 202.719 115.815 203.03 115.565 203.297C115.317 203.561 115.006 203.767 114.631 203.915C114.259 204.06 113.835 204.132 113.357 204.132ZM120.336 204.132C119.723 204.132 119.187 203.991 118.73 203.71C118.272 203.429 117.917 203.036 117.664 202.53C117.412 202.024 117.285 201.433 117.285 200.757C117.285 200.078 117.412 199.484 117.664 198.976C117.917 198.467 118.272 198.072 118.73 197.791C119.187 197.51 119.723 197.369 120.336 197.369C120.95 197.369 121.485 197.51 121.943 197.791C122.4 198.072 122.755 198.467 123.008 198.976C123.261 199.484 123.387 200.078 123.387 200.757C123.387 201.433 123.261 202.024 123.008 202.53C122.755 203.036 122.4 203.429 121.943 203.71C121.485 203.991 120.95 204.132 120.336 204.132ZM120.341 203.062C120.738 203.062 121.068 202.957 121.329 202.747C121.591 202.537 121.784 202.257 121.909 201.908C122.037 201.558 122.1 201.173 122.1 200.753C122.1 200.335 122.037 199.952 121.909 199.602C121.784 199.25 121.591 198.967 121.329 198.754C121.068 198.541 120.738 198.435 120.341 198.435C119.94 198.435 119.608 198.541 119.343 198.754C119.082 198.967 118.887 199.25 118.76 199.602C118.635 199.952 118.572 200.335 118.572 200.753C118.572 201.173 118.635 201.558 118.76 201.908C118.887 202.257 119.082 202.537 119.343 202.747C119.608 202.957 119.94 203.062 120.341 203.062ZM124.81 206.455V197.455H126.054V198.516H126.161C126.234 198.379 126.341 198.222 126.48 198.043C126.619 197.864 126.813 197.707 127.06 197.574C127.307 197.438 127.634 197.369 128.04 197.369C128.568 197.369 129.04 197.503 129.455 197.77C129.869 198.037 130.195 198.422 130.43 198.925C130.669 199.428 130.788 200.033 130.788 200.74C130.788 201.447 130.67 202.054 130.435 202.56C130.199 203.062 129.875 203.45 129.463 203.723C129.051 203.993 128.581 204.128 128.053 204.128C127.655 204.128 127.33 204.061 127.077 203.928C126.827 203.794 126.631 203.638 126.489 203.459C126.347 203.28 126.237 203.121 126.161 202.982H126.084V206.455H124.81ZM126.058 200.727C126.058 201.187 126.125 201.591 126.259 201.938C126.392 202.284 126.585 202.555 126.838 202.751C127.091 202.945 127.401 203.041 127.767 203.041C128.148 203.041 128.466 202.94 128.722 202.739C128.977 202.534 129.17 202.257 129.301 201.908C129.435 201.558 129.501 201.165 129.501 200.727C129.501 200.295 129.436 199.908 129.305 199.564C129.178 199.22 128.984 198.949 128.726 198.75C128.47 198.551 128.151 198.452 127.767 198.452C127.398 198.452 127.085 198.547 126.83 198.737C126.577 198.928 126.385 199.193 126.254 199.534C126.124 199.875 126.058 200.273 126.058 200.727ZM133.49 195.273V204H132.216V195.273H133.49ZM138.025 204.132C137.38 204.132 136.825 203.994 136.359 203.719C135.896 203.44 135.538 203.05 135.285 202.547C135.035 202.041 134.91 201.449 134.91 200.77C134.91 200.099 135.035 199.509 135.285 198.997C135.538 198.486 135.89 198.087 136.342 197.8C136.797 197.513 137.328 197.369 137.936 197.369C138.305 197.369 138.663 197.43 139.01 197.553C139.356 197.675 139.667 197.866 139.943 198.128C140.218 198.389 140.436 198.729 140.595 199.146C140.754 199.561 140.833 200.065 140.833 200.659V201.111H135.63V200.156H139.585C139.585 199.821 139.517 199.524 139.38 199.266C139.244 199.004 139.052 198.798 138.805 198.648C138.561 198.497 138.274 198.422 137.944 198.422C137.586 198.422 137.274 198.51 137.007 198.686C136.743 198.859 136.538 199.087 136.393 199.368C136.251 199.646 136.18 199.949 136.18 200.276V201.021C136.18 201.459 136.257 201.831 136.41 202.138C136.566 202.445 136.784 202.679 137.062 202.841C137.341 203 137.666 203.08 138.038 203.08C138.279 203.08 138.5 203.045 138.699 202.977C138.897 202.906 139.069 202.801 139.214 202.662C139.359 202.523 139.47 202.351 139.547 202.146L140.752 202.364C140.656 202.719 140.483 203.03 140.233 203.297C139.985 203.561 139.674 203.767 139.299 203.915C138.927 204.06 138.502 204.132 138.025 204.132ZM152.774 198.111H151.444C151.393 197.827 151.298 197.577 151.159 197.361C151.02 197.145 150.849 196.962 150.647 196.811C150.446 196.661 150.22 196.547 149.97 196.47C149.723 196.393 149.46 196.355 149.181 196.355C148.679 196.355 148.228 196.482 147.831 196.734C147.436 196.987 147.123 197.358 146.893 197.847C146.666 198.335 146.552 198.932 146.552 199.636C146.552 200.347 146.666 200.946 146.893 201.435C147.123 201.923 147.437 202.293 147.835 202.543C148.233 202.793 148.68 202.918 149.177 202.918C149.453 202.918 149.714 202.881 149.961 202.807C150.211 202.73 150.437 202.618 150.639 202.47C150.841 202.322 151.011 202.142 151.15 201.929C151.292 201.713 151.39 201.466 151.444 201.188L152.774 201.192C152.703 201.621 152.565 202.016 152.36 202.376C152.159 202.734 151.899 203.044 151.581 203.305C151.265 203.564 150.904 203.764 150.498 203.906C150.092 204.048 149.649 204.119 149.169 204.119C148.413 204.119 147.74 203.94 147.149 203.582C146.558 203.222 146.092 202.706 145.751 202.036C145.413 201.365 145.244 200.565 145.244 199.636C145.244 198.705 145.414 197.905 145.755 197.237C146.096 196.567 146.562 196.053 147.153 195.695C147.744 195.334 148.416 195.153 149.169 195.153C149.632 195.153 150.064 195.22 150.464 195.354C150.868 195.484 151.23 195.678 151.551 195.933C151.872 196.186 152.137 196.496 152.348 196.862C152.558 197.226 152.7 197.642 152.774 198.111ZM155.521 200.114V204H154.247V195.273H155.504V198.52H155.585C155.739 198.168 155.973 197.888 156.288 197.68C156.604 197.473 157.016 197.369 157.524 197.369C157.973 197.369 158.365 197.462 158.7 197.646C159.038 197.831 159.3 198.107 159.484 198.473C159.672 198.837 159.766 199.291 159.766 199.837V204H158.491V199.99C158.491 199.51 158.368 199.138 158.121 198.874C157.874 198.607 157.53 198.473 157.089 198.473C156.788 198.473 156.518 198.537 156.28 198.665C156.044 198.793 155.858 198.98 155.722 199.227C155.588 199.472 155.521 199.767 155.521 200.114ZM163.371 204.145C162.956 204.145 162.581 204.068 162.246 203.915C161.911 203.759 161.645 203.533 161.449 203.237C161.256 202.942 161.159 202.58 161.159 202.151C161.159 201.781 161.23 201.477 161.372 201.239C161.514 201 161.706 200.811 161.947 200.672C162.189 200.533 162.459 200.428 162.757 200.357C163.055 200.286 163.359 200.232 163.669 200.195C164.061 200.149 164.379 200.112 164.624 200.084C164.868 200.053 165.045 200.003 165.156 199.935C165.267 199.866 165.322 199.756 165.322 199.602V199.572C165.322 199.2 165.217 198.912 165.007 198.707C164.8 198.503 164.49 198.401 164.078 198.401C163.649 198.401 163.311 198.496 163.064 198.686C162.82 198.874 162.651 199.082 162.557 199.312L161.359 199.04C161.501 198.642 161.709 198.321 161.982 198.077C162.257 197.83 162.574 197.651 162.932 197.54C163.29 197.426 163.666 197.369 164.061 197.369C164.322 197.369 164.599 197.401 164.892 197.463C165.188 197.523 165.463 197.634 165.719 197.795C165.977 197.957 166.189 198.189 166.354 198.49C166.518 198.788 166.601 199.176 166.601 199.653V204H165.357V203.105H165.305C165.223 203.27 165.099 203.432 164.935 203.591C164.77 203.75 164.558 203.882 164.3 203.987C164.041 204.092 163.732 204.145 163.371 204.145ZM163.648 203.122C164 203.122 164.301 203.053 164.551 202.913C164.804 202.774 164.996 202.592 165.126 202.368C165.26 202.141 165.327 201.898 165.327 201.639V200.795C165.281 200.841 165.193 200.884 165.062 200.923C164.935 200.96 164.788 200.993 164.624 201.021C164.459 201.047 164.298 201.071 164.142 201.094C163.986 201.114 163.855 201.131 163.75 201.145C163.503 201.176 163.277 201.229 163.072 201.303C162.871 201.376 162.709 201.483 162.587 201.622C162.467 201.759 162.408 201.94 162.408 202.168C162.408 202.483 162.524 202.722 162.757 202.884C162.99 203.043 163.287 203.122 163.648 203.122ZM169.572 200.114V204H168.298V197.455H169.521V198.52H169.602C169.752 198.173 169.988 197.895 170.309 197.685C170.633 197.474 171.041 197.369 171.532 197.369C171.978 197.369 172.369 197.463 172.704 197.651C173.039 197.835 173.299 198.111 173.484 198.477C173.669 198.844 173.761 199.297 173.761 199.837V204H172.487V199.99C172.487 199.516 172.363 199.145 172.116 198.878C171.869 198.608 171.529 198.473 171.098 198.473C170.802 198.473 170.539 198.537 170.309 198.665C170.082 198.793 169.902 198.98 169.768 199.227C169.637 199.472 169.572 199.767 169.572 200.114ZM178.214 206.591C177.694 206.591 177.247 206.523 176.872 206.386C176.5 206.25 176.196 206.07 175.96 205.845C175.724 205.621 175.548 205.375 175.431 205.108L176.527 204.656C176.603 204.781 176.706 204.913 176.833 205.053C176.964 205.195 177.14 205.315 177.362 205.415C177.586 205.514 177.875 205.564 178.227 205.564C178.71 205.564 179.109 205.446 179.424 205.21C179.74 204.977 179.897 204.605 179.897 204.094V202.807H179.816C179.74 202.946 179.629 203.101 179.484 203.271C179.342 203.442 179.146 203.589 178.896 203.714C178.646 203.839 178.321 203.902 177.92 203.902C177.403 203.902 176.937 203.781 176.522 203.54C176.11 203.295 175.784 202.936 175.542 202.462C175.304 201.984 175.184 201.398 175.184 200.702C175.184 200.006 175.302 199.409 175.538 198.912C175.777 198.415 176.103 198.034 176.518 197.77C176.933 197.503 177.403 197.369 177.929 197.369C178.335 197.369 178.663 197.438 178.913 197.574C179.163 197.707 179.358 197.864 179.497 198.043C179.639 198.222 179.748 198.379 179.825 198.516H179.919V197.455H181.167V204.145C181.167 204.707 181.037 205.169 180.775 205.53C180.514 205.891 180.16 206.158 179.714 206.331C179.271 206.504 178.771 206.591 178.214 206.591ZM178.201 202.845C178.568 202.845 178.877 202.76 179.13 202.589C179.386 202.416 179.579 202.169 179.71 201.848C179.843 201.524 179.91 201.136 179.91 200.685C179.91 200.244 179.845 199.857 179.714 199.521C179.583 199.186 179.392 198.925 179.139 198.737C178.886 198.547 178.574 198.452 178.201 198.452C177.818 198.452 177.498 198.551 177.243 198.75C176.987 198.946 176.794 199.213 176.663 199.551C176.535 199.889 176.471 200.267 176.471 200.685C176.471 201.114 176.537 201.49 176.667 201.814C176.798 202.138 176.991 202.391 177.247 202.572C177.505 202.754 177.824 202.845 178.201 202.845ZM182.876 204V197.455H184.15V204H182.876ZM183.52 196.445C183.298 196.445 183.108 196.371 182.949 196.223C182.792 196.072 182.714 195.893 182.714 195.686C182.714 195.476 182.792 195.297 182.949 195.149C183.108 194.999 183.298 194.923 183.52 194.923C183.741 194.923 183.93 194.999 184.086 195.149C184.245 195.297 184.325 195.476 184.325 195.686C184.325 195.893 184.245 196.072 184.086 196.223C183.93 196.371 183.741 196.445 183.52 196.445ZM187.138 200.114V204H185.864V197.455H187.087V198.52H187.168C187.319 198.173 187.555 197.895 187.876 197.685C188.2 197.474 188.607 197.369 189.099 197.369C189.545 197.369 189.935 197.463 190.271 197.651C190.606 197.835 190.866 198.111 191.05 198.477C191.235 198.844 191.327 199.297 191.327 199.837V204H190.053V199.99C190.053 199.516 189.93 199.145 189.683 198.878C189.435 198.608 189.096 198.473 188.664 198.473C188.369 198.473 188.106 198.537 187.876 198.665C187.648 198.793 187.468 198.98 187.335 199.227C187.204 199.472 187.138 199.767 187.138 200.114ZM195.781 206.591C195.261 206.591 194.813 206.523 194.438 206.386C194.066 206.25 193.762 206.07 193.526 205.845C193.29 205.621 193.114 205.375 192.998 205.108L194.093 204.656C194.17 204.781 194.272 204.913 194.4 205.053C194.531 205.195 194.707 205.315 194.928 205.415C195.153 205.514 195.441 205.564 195.793 205.564C196.276 205.564 196.675 205.446 196.991 205.21C197.306 204.977 197.464 204.605 197.464 204.094V202.807H197.383C197.306 202.946 197.195 203.101 197.05 203.271C196.908 203.442 196.712 203.589 196.462 203.714C196.212 203.839 195.887 203.902 195.487 203.902C194.969 203.902 194.504 203.781 194.089 203.54C193.677 203.295 193.35 202.936 193.109 202.462C192.87 201.984 192.751 201.398 192.751 200.702C192.751 200.006 192.869 199.409 193.104 198.912C193.343 198.415 193.67 198.034 194.085 197.77C194.499 197.503 194.969 197.369 195.495 197.369C195.901 197.369 196.229 197.438 196.479 197.574C196.729 197.707 196.924 197.864 197.063 198.043C197.205 198.222 197.315 198.379 197.391 198.516H197.485V197.455H198.734V204.145C198.734 204.707 198.603 205.169 198.342 205.53C198.08 205.891 197.727 206.158 197.281 206.331C196.837 206.504 196.337 206.591 195.781 206.591ZM195.768 202.845C196.134 202.845 196.444 202.76 196.697 202.589C196.952 202.416 197.146 202.169 197.276 201.848C197.41 201.524 197.477 201.136 197.477 200.685C197.477 200.244 197.411 199.857 197.281 199.521C197.15 199.186 196.958 198.925 196.705 198.737C196.452 198.547 196.14 198.452 195.768 198.452C195.384 198.452 195.065 198.551 194.809 198.75C194.553 198.946 194.36 199.213 194.229 199.551C194.102 199.889 194.038 200.267 194.038 200.685C194.038 201.114 194.103 201.49 194.234 201.814C194.364 202.138 194.558 202.391 194.813 202.572C195.072 202.754 195.39 202.845 195.768 202.845ZM203.721 204V195.273H205.037V202.866H208.992V204H203.721ZM210.392 204V197.455H211.666V204H210.392ZM211.035 196.445C210.814 196.445 210.623 196.371 210.464 196.223C210.308 196.072 210.23 195.893 210.23 195.686C210.23 195.476 210.308 195.297 210.464 195.149C210.623 194.999 210.814 194.923 211.035 194.923C211.257 194.923 211.446 194.999 211.602 195.149C211.761 195.297 211.841 195.476 211.841 195.686C211.841 195.893 211.761 196.072 211.602 196.223C211.446 196.371 211.257 196.445 211.035 196.445ZM218.979 197.455L216.606 204H215.242L212.864 197.455H214.232L215.89 202.491H215.958L217.612 197.455H218.979ZM222.775 204.132C222.13 204.132 221.575 203.994 221.109 203.719C220.646 203.44 220.288 203.05 220.035 202.547C219.785 202.041 219.66 201.449 219.66 200.77C219.66 200.099 219.785 199.509 220.035 198.997C220.288 198.486 220.64 198.087 221.092 197.8C221.547 197.513 222.078 197.369 222.686 197.369C223.055 197.369 223.413 197.43 223.76 197.553C224.106 197.675 224.417 197.866 224.693 198.128C224.968 198.389 225.186 198.729 225.345 199.146C225.504 199.561 225.583 200.065 225.583 200.659V201.111H220.38V200.156H224.335C224.335 199.821 224.267 199.524 224.13 199.266C223.994 199.004 223.802 198.798 223.555 198.648C223.311 198.497 223.024 198.422 222.694 198.422C222.336 198.422 222.024 198.51 221.757 198.686C221.493 198.859 221.288 199.087 221.143 199.368C221.001 199.646 220.93 199.949 220.93 200.276V201.021C220.93 201.459 221.007 201.831 221.16 202.138C221.316 202.445 221.534 202.679 221.812 202.841C222.091 203 222.416 203.08 222.788 203.08C223.029 203.08 223.25 203.045 223.449 202.977C223.647 202.906 223.819 202.801 223.964 202.662C224.109 202.523 224.22 202.351 224.297 202.146L225.502 202.364C225.406 202.719 225.233 203.03 224.983 203.297C224.735 203.561 224.424 203.767 224.049 203.915C223.677 204.06 223.252 204.132 222.775 204.132ZM231.902 199.053L230.747 199.257C230.699 199.109 230.622 198.969 230.517 198.835C230.415 198.702 230.276 198.592 230.099 198.507C229.923 198.422 229.703 198.379 229.439 198.379C229.078 198.379 228.777 198.46 228.536 198.622C228.294 198.781 228.173 198.987 228.173 199.24C228.173 199.459 228.254 199.635 228.416 199.768C228.578 199.902 228.839 200.011 229.2 200.097L230.24 200.335C230.842 200.474 231.291 200.689 231.587 200.979C231.882 201.268 232.03 201.645 232.03 202.108C232.03 202.5 231.916 202.849 231.689 203.156C231.464 203.46 231.151 203.699 230.747 203.872C230.347 204.045 229.882 204.132 229.354 204.132C228.621 204.132 228.023 203.976 227.56 203.663C227.097 203.348 226.813 202.901 226.707 202.321L227.939 202.134C228.016 202.455 228.173 202.697 228.412 202.862C228.651 203.024 228.962 203.105 229.345 203.105C229.763 203.105 230.097 203.018 230.347 202.845C230.597 202.669 230.722 202.455 230.722 202.202C230.722 201.997 230.645 201.825 230.491 201.686C230.341 201.547 230.109 201.442 229.797 201.371L228.689 201.128C228.078 200.989 227.626 200.767 227.334 200.463C227.044 200.159 226.899 199.774 226.899 199.308C226.899 198.922 227.007 198.584 227.223 198.294C227.439 198.004 227.737 197.778 228.118 197.616C228.499 197.452 228.935 197.369 229.426 197.369C230.134 197.369 230.69 197.523 231.097 197.83C231.503 198.134 231.771 198.541 231.902 199.053Z" fill="black"/>
<path d="M199 128.825C199 114.592 191.375 103.408 180.192 97.8167C185.275 92.7333 188.833 86.125 188.833 78.5C188.833 64.2667 177.65 53.0833 163.417 53.0833C152.742 53.0833 144.1 59.1833 140.033 68.3333C139.525 68.3333 138.508 68.3333 138 68.3333C137.492 68.3333 136.475 68.3333 135.967 68.3333C131.9 59.1833 123.258 53.0833 112.583 53.0833C98.35 53.0833 87.1667 64.2667 87.1667 78.5C87.1667 86.125 90.725 92.7333 95.8083 97.8167C84.625 103.408 77 115.1 77 128.825V149.667H102.417V164.917H173.583V149.667H199V128.825ZM163.417 63.25C172.058 63.25 178.667 69.8583 178.667 78.5C178.667 86.6333 172.058 93.75 163.417 93.75C163.417 84.0917 157.825 75.9583 149.692 71.3833C152.233 66.3 157.317 63.25 163.417 63.25ZM153.25 93.75C153.25 102.392 146.642 109 138 109C129.358 109 122.75 102.392 122.75 93.75C122.75 85.1083 129.358 78.5 138 78.5C146.642 78.5 153.25 85.1083 153.25 93.75ZM112.583 63.25C118.683 63.25 123.767 66.3 126.308 71.3833C118.175 75.9583 112.583 84.0917 112.583 93.75C103.942 93.75 97.3333 87.1417 97.3333 78.5C97.3333 69.8583 103.942 63.25 112.583 63.25ZM102.925 139.5H87.1667V128.825C87.1667 114.592 97.8417 103.917 112.583 103.917C113.092 103.917 113.6 103.917 114.108 103.917C115.633 107.475 118.175 110.525 120.717 113.067C111.058 118.15 104.45 127.808 102.925 139.5ZM163.417 154.75H112.583V144.075C112.583 129.842 123.767 119.167 138 119.167C152.742 119.167 163.417 129.842 163.417 144.075V154.75ZM188.833 139.5H173.075C171.55 127.808 164.433 118.15 154.267 113.067C157.317 110.525 159.35 107.475 160.875 103.917C161.383 103.917 161.892 103.917 162.908 103.917C177.65 103.917 188.325 114.592 188.325 128.825V139.5H188.833Z" fill="black"/>
<path d="M158 134.099C158 138.336 161.417 140.594 163.917 142.615C164.8 143.329 165.65 144 166.5 144C167.35 144 168.2 143.329 169.083 142.615C171.584 140.594 175 138.336 175 134.099C175 129.862 170.325 126.857 166.5 130.931C162.675 126.857 158 129.862 158 134.099Z" fill="#FF0000"/>
<path d="M101 135.099C101 139.336 104.417 141.594 106.917 143.615C107.8 144.329 108.65 145 109.5 145C110.35 145 111.2 144.329 112.083 143.615C114.584 141.594 118 139.336 118 135.099C118 130.862 113.325 127.857 109.5 131.931C105.675 127.857 101 130.862 101 135.099Z" fill="#FF0000"/>
</g>
<defs>
<clipPath id="clip0_0_1">
<rect width="276" height="276" fill="white"/>
</clipPath>
</defs>
</svg>
